<?xml version="1.0"?>
<svg xmlns="http://www.w3.org/2000/svg" xmlns:xlink="http://www.w3.org/1999/xlink" version="1.1" id="Layer_1" x="0px" y="0px" viewBox="0 0 512 512" style="enable-background:new 0 0 512 512;" xml:space="preserve" width="512px" height="512px" class=""><g><g>
	<path d="M136,246c-5.52,0-10,4.48-10,10c0,5.52,4.48,10,10,10s10-4.48,10-10C146,250.48,141.52,246,136,246z" data-original="#000000" class="active-path" data-old_color="#fd758c" fill="#fd758c"/>
	<path d="M486,316c0-13.036-8.361-24.152-20-28.28V50c0-16.542-13.458-30-30-30H324.28C320.152,8.361,309.036,0,296,0h-80   c-13.331,0-24.279,8.612-28.297,20H76c-16.542,0-30,13.458-30,30v237.704C34.609,291.722,26,302.669,26,316   c0,16.542,13.458,30,30,30h58.534L65.399,498.941c-0.978,3.042-0.442,6.368,1.44,8.95c1.882,2.581,4.885,4.108,8.08,4.108h42.16   c4.345,0,8.191-2.805,9.521-6.94L177.71,346H226v156c0,5.522,4.478,10,10,10h40c5.522,0,10-4.478,10-10V346h48.29l51.11,159.06   c1.329,4.136,5.176,6.94,9.521,6.94h42.16c3.195,0,6.198-1.527,8.08-4.108c1.883-2.582,2.418-5.908,1.44-8.95L397.466,346H456   C472.575,346,486,332.576,486,316z M66,286v-20h30c5.522,0,10-4.477,10-10s-4.478-10-10-10H66v-60.087   c6.209-6.034,12.526-12.763,18.666-19.306c17.551-18.707,37.443-39.909,51.826-40.619c30.249-1.488,49.021,22.938,68.926,48.799   c19.188,24.928,39.028,50.704,70.421,51.211c0.361,0.006,0.72,0.009,1.078,0.009c32.237,0,50.488-23.564,66.61-44.381   c15.441-19.938,28.787-37.145,51.82-35.647c9.842,0.643,22.686,13.81,34.018,25.427c5.414,5.55,10.981,11.241,16.635,16.132V246   H176c-5.522,0-10,4.477-10,10s4.478,10,10,10h270v20H66z M216,20h80c5.514,0,10,4.486,10,10c0,5.522-4.479,10-10,10h-80   c-5.514,0-10-4.486-10-10C206,24.478,210.479,20,216,20z M76,40h111.72c4.128,11.639,15.243,20,28.28,20h80   c13.331,0,24.279-8.612,28.297-20H436c5.514,0,10,4.486,10,10v109.814c-13.89-14.194-30.439-32.558-49.347-33.793   c-33.623-2.208-52.397,22.001-68.938,43.358c-15.211,19.64-28.365,36.628-50.828,36.628c-0.239,0-0.484-0.002-0.727-0.006   c-21.749-0.352-37.849-21.269-54.895-43.414c-21.136-27.458-45.079-58.583-85.76-56.576c-24.526,1.21-48.996,29.481-69.507,51.252   V50C66,44.486,70.486,40,76,40z M109.79,492H88.636l46.905-146h21.163L109.79,492z M266,492h-20V346h20V492z M423.364,492H402.21   l-46.913-146h21.163L423.364,492z M456,326c-19.94,0-380.704,0-400,0c-5.514,0-10-4.486-10-10c0-5.522,4.479-10,10-10h400   c5.514,0,10,4.486,10,10C466,321.522,461.521,326,456,326z" data-original="#000000" class="active-path" data-old_color="#fd758c" fill="#fd758c"/>
	<path d="M276,146c16.542,0,30-13.458,30-30s-13.458-30-30-30s-30,13.458-30,30S259.458,146,276,146z M276,106   c5.514,0,10,4.486,10,10s-4.486,10-10,10s-10-4.486-10-10S270.486,106,276,106z" data-original="#000000" class="active-path" data-old_color="#fd758c" fill="#fd758c"/>
</g></g> </svg>
